<svg version="1.1" id="Layer_1" xmlns="http://www.w3.org/2000/svg" xmlns:xlink="http://www.w3.org/1999/xlink" x="0px" y="0px"
	 width="100%" viewBox="0 0 1024 1024" enable-background="new 0 0 1024 1024" xml:space="preserve">
<path fill="#000000" opacity="1.000000" stroke="none" 
	d="
M161.733246,560.000000 
	C161.733551,481.344788 161.604996,403.189270 161.808304,325.034607 
	C161.869461,301.524811 171.661346,283.229523 192.233780,270.677948 
	C235.608597,244.214294 278.685486,217.262726 321.930084,190.585052 
	C376.801056,156.735046 431.497772,122.593842 486.726471,89.336823 
	C507.571259,76.784721 529.420654,79.064789 549.821472,91.582352 
	C598.806213,121.638519 647.534668,152.112045 696.426758,182.319702 
	C743.477722,211.389816 790.533875,240.452652 837.731262,269.283722 
	C857.278870,281.224579 867.067017,298.818054 867.121643,321.114990 
	C867.415527,441.096771 867.441467,561.080200 867.084778,681.061707 
	C867.020386,702.723206 857.158936,720.048889 838.541931,731.967896 
	C792.529602,761.425842 746.562195,790.953918 700.586243,820.468567 
	C652.224854,851.514465 603.780396,882.432800 555.588440,913.739624 
	C544.099670,921.202942 532.286377,926.406006 518.396729,926.345764 
	C507.765900,926.299683 497.882568,923.549561 488.981140,917.975830 
	C440.128021,887.386658 391.389099,856.615112 342.587280,825.943909 
	C291.668854,793.942444 240.733582,761.967651 189.784424,730.015076 
	C171.304733,718.425537 162.033859,701.441589 161.824478,679.982422 
	C161.435898,640.158447 161.724808,600.327820 161.733246,560.000000 
M494.666443,625.500061 
	C494.660553,594.834778 494.802185,564.168457 494.570801,533.504883 
	C494.486908,522.391846 490.095978,513.154175 480.340271,506.970062 
	C474.711853,503.402222 469.207642,499.638824 463.594025,496.047119 
	C398.758179,454.564148 334.433533,412.279846 268.907257,371.878876 
	C253.732712,362.522827 238.648193,353.020844 223.490387,343.637543 
	C217.459488,339.904114 211.173981,337.231506 204.369781,341.718323 
	C198.337662,345.696014 197.291763,352.079132 197.501389,358.521057 
	C198.249664,381.515442 197.649475,404.498505 197.472977,427.488892 
	C197.248001,456.794098 197.423386,486.102356 197.417633,515.409302 
	C197.407166,568.572388 197.306580,621.735779 197.457535,674.898376 
	C197.483109,683.896667 201.475952,691.351196 209.276413,696.264282 
	C247.340164,720.238770 285.445374,744.147339 323.531342,768.086487 
	C374.171875,799.916748 424.824005,831.728760 475.432831,863.609375 
	C485.188873,869.755188 493.867737,865.513977 494.612854,853.989929 
	C494.752411,851.831665 494.664856,849.658081 494.664886,847.491577 
	C494.666595,773.827759 494.666168,700.163940 494.666443,625.500061 
M245.389618,312.059723 
	C261.342590,321.733307 277.321259,331.364838 293.243591,341.088531 
	C336.320526,367.395538 379.963013,392.788086 422.340027,420.226044 
	C450.166504,438.242920 477.638428,456.806854 505.305145,475.071228 
	C513.989136,480.804077 522.987366,480.622253 531.676331,475.305145 
	C552.136536,462.784698 572.527832,450.147827 592.811157,437.342773 
	C639.860474,407.640106 686.848877,377.840698 733.822205,348.017883 
	C755.340271,334.356415 776.820801,320.633850 798.203918,306.762634 
	C806.702820,301.249390 806.509460,294.015198 798.036682,288.741302 
	C778.803406,276.769470 759.567139,264.802399 740.296204,252.891373 
	C687.159546,220.048538 634.006409,187.232346 580.855591,154.412415 
	C563.564270,143.735275 546.340942,132.944733 528.926758,122.471649 
	C520.534729,117.424606 511.671722,116.532799 502.907562,121.895065 
	C490.832886,129.282761 478.805695,136.748062 466.756500,144.177414 
	C413.160004,177.224106 359.553925,210.255219 305.970123,243.322464 
	C281.730682,258.280945 257.485352,273.231018 233.349274,288.354950 
	C225.829376,293.066986 226.099686,300.345795 233.624588,305.004730 
	C237.306519,307.284302 241.054947,309.456512 245.389618,312.059723 
M677.929871,528.381409 
	C685.528564,523.890137 693.122864,519.391357 700.726807,514.909119 
	C720.813232,503.068817 740.916687,491.257568 760.986389,479.389038 
	C769.094360,474.594299 772.175171,463.251495 767.620667,455.363403 
	C763.539551,448.295288 754.332581,446.843658 745.546753,451.943359 
	C738.490845,456.038971 731.456604,460.172607 724.444214,464.342194 
	C697.391174,480.427795 670.398560,496.615753 643.280884,512.591431 
	C633.156982,518.555664 625.129395,526.501343 618.563416,536.151306 
	C601.922729,560.607910 601.612000,587.941467 605.627563,615.515137 
	C607.596436,629.034668 618.089722,642.751282 639.343872,639.818176 
	C648.011230,638.622131 655.427246,634.688232 662.765625,630.336060 
	C683.108521,618.271301 703.483826,606.261047 723.865784,594.262329 
	C728.259521,591.675842 732.821472,589.355530 737.895142,592.464294 
	C742.827576,595.486511 743.360291,600.429688 743.266907,605.614990 
	C743.176880,610.611633 743.534180,615.632568 743.173523,620.604919 
	C742.169312,634.449768 737.076904,645.940735 724.435181,653.329163 
	C689.210815,673.916260 654.105164,694.706299 618.928772,715.375793 
	C611.965393,719.467529 608.275085,726.681763 609.300964,734.699097 
	C610.291992,742.444397 617.523987,747.528320 625.156921,746.075378 
	C629.391235,745.269348 632.870667,742.997498 636.428772,740.883606 
	C667.931335,722.168457 699.185669,703.022766 730.960815,684.783936 
	C751.139709,673.201233 763.496582,656.297363 769.762695,634.370422 
	C774.573975,617.534119 772.755615,600.339966 772.354980,583.235779 
	C772.305359,581.120422 771.568909,578.980042 770.914673,576.926453 
	C765.280273,559.241760 750.038696,551.357117 731.819214,556.730103 
	C719.648804,560.319214 709.625366,568.057800 698.792908,574.188538 
	C683.142944,583.045776 667.801453,592.446106 652.248779,601.477661 
	C642.683105,607.032471 635.032043,603.071106 634.033508,591.968689 
	C633.572632,586.843750 633.591736,581.626221 633.938232,576.487488 
	C634.940796,561.618530 640.945679,549.621155 654.400574,542.045105 
	C662.090698,537.715088 669.669617,533.187561 677.929871,528.381409 
z"/>
<path fill="#000000" opacity="1.000000" stroke="none" 
	d="
M440.347473,714.000122 
	C440.327698,724.329773 440.476044,734.163635 440.233185,743.987793 
	C440.042969,751.683105 435.078430,758.221375 428.728851,759.914185 
	C422.177948,761.660645 415.684387,758.875549 411.020996,752.454712 
	C408.281342,748.682617 407.002319,744.458374 406.744995,739.877380 
	C406.651672,738.215942 406.697754,736.546143 406.697906,734.880127 
	C406.701508,691.395508 406.707520,647.910950 406.713135,604.426331 
	C406.713226,603.759888 406.745026,603.091736 406.708832,602.427307 
	C406.611237,600.637329 407.056458,598.507202 405.012421,597.564636 
	C402.905548,596.593140 401.646545,598.373535 400.342712,599.602112 
	C394.160187,605.427917 387.970978,611.247253 381.843414,617.130615 
	C375.114197,623.591736 368.532318,630.208130 361.738647,636.599976 
	C350.082153,647.566956 337.516052,645.339539 330.136871,630.945435 
	C320.185455,611.533813 310.399933,592.037231 300.530457,572.583557 
	C295.934235,563.523987 291.328796,554.468994 286.671173,545.440979 
	C286.038116,544.213867 285.858887,542.491455 283.917358,542.182556 
	C282.593292,543.981018 283.171631,546.033142 283.169373,547.944031 
	C283.129089,582.098450 283.111877,616.252869 283.154755,650.407227 
	C283.160065,654.646790 282.604095,658.721375 280.708252,662.519592 
	C275.135071,673.685059 260.643524,674.643982 253.163620,664.294861 
	C250.167908,660.150024 248.649170,655.433105 248.650330,650.259338 
	C248.662827,594.778992 248.641632,539.298645 248.690231,483.818359 
	C248.698471,474.408600 253.312958,467.337189 260.953979,464.434967 
	C268.229218,461.671692 275.858826,464.130920 282.297363,471.263824 
	C286.832245,476.287842 289.585754,482.406769 292.634705,488.305908 
	C309.912781,521.735596 327.079437,555.222839 344.270691,588.697388 
	C346.760864,593.546143 348.143555,593.789490 352.429596,589.735535 
	C366.224213,576.687866 380.693024,564.260315 393.576935,550.365112 
	C410.830841,531.756836 428.236664,543.691528 435.367493,558.810974 
	C438.896149,566.292725 440.409119,574.217468 440.391083,582.546509 
	C440.296478,626.197510 440.346893,669.848816 440.347473,714.000122 
z"/>
<path fill="#000000" opacity="1.000000" stroke="none" 
	d="
M498.695251,219.491852 
	C521.516296,214.669220 542.771301,217.179749 562.453003,229.535110 
	C583.607544,242.815079 604.883728,255.905579 625.891357,269.413849 
	C649.885681,284.842529 649.606323,313.857147 625.505676,329.247040 
	C602.071960,344.211060 578.879883,359.582672 555.049500,373.888672 
	C527.445923,390.459839 498.861542,391.431366 470.704590,375.147400 
	C447.935669,361.979523 425.671722,347.938110 403.196838,334.262756 
	C401.635529,333.312744 400.135498,332.245758 398.686432,331.129974 
	C379.575134,316.414154 379.330780,291.486572 398.790039,277.206116 
	C409.092834,269.645264 420.453522,263.527069 431.328522,256.744568 
	C446.021790,247.580719 460.749298,238.470779 475.377991,229.204849 
	C482.498047,224.694916 490.139191,221.574081 498.695251,219.491852 
M524.341370,355.918610 
	C527.922668,354.997894 531.165955,353.396515 534.290466,351.406433 
	C555.909424,337.636780 577.567566,323.928619 599.221619,310.214172 
	C609.454712,303.733124 609.375977,294.410126 599.011780,287.916412 
	C579.971252,275.986481 560.863098,264.162689 541.911438,252.093185 
	C526.409119,242.220413 510.953094,242.287735 495.416382,251.690598 
	C484.312042,258.410919 473.336823,265.344391 462.291534,272.162506 
	C450.397095,279.504730 438.364441,286.631927 426.627197,294.216736 
	C418.224121,299.646942 418.411163,307.869934 426.635101,313.592010 
	C427.726776,314.351562 428.871521,315.037598 430.012268,315.723419 
	C448.982544,327.127899 468.125763,338.256775 486.866516,350.026611 
	C498.441742,357.296234 510.444000,359.453064 524.341370,355.918610 
z"/>
</svg>