<svg version="1.1" id="Layer_1" xmlns="http://www.w3.org/2000/svg" xmlns:xlink="http://www.w3.org/1999/xlink" x="0px" y="0px"
	 width="100%" viewBox="0 0 1024 1024" enable-background="new 0 0 1024 1024" xml:space="preserve">
<path fill="#000000" opacity="1.000000" stroke="none" 
	d="
M402.625305,228.572998 
	C429.971313,212.569641 457.106171,196.924286 483.992889,180.863525 
	C503.982666,168.922668 523.605347,169.228012 543.543945,180.788284 
	C620.938538,225.661194 698.409729,270.402161 775.781738,315.313904 
	C790.999329,324.147125 797.893555,338.255157 797.926514,355.354004 
	C798.104553,447.675323 798.073120,539.997314 797.916504,632.318787 
	C797.885437,650.608398 789.456421,664.271118 773.587891,673.670105 
	C703.217346,715.350647 632.937744,757.184875 562.642395,798.992310 
	C555.199890,803.418640 547.918579,808.115967 540.477173,812.544128 
	C522.349365,823.331421 503.525299,824.271973 485.409515,813.641479 
	C432.826050,782.784790 380.620239,751.284973 328.240387,720.080933 
	C301.906677,704.393188 275.530121,688.777344 249.147644,673.171631 
	C234.050232,664.241333 226.644974,650.980957 226.628220,633.527466 
	C226.593018,596.870972 226.963074,560.209167 226.446487,523.559753 
	C226.061447,496.241974 226.235733,468.930420 226.173050,441.617065 
	C226.108109,413.320953 226.179749,385.019073 226.702759,356.729156 
	C227.003860,340.441711 234.289337,327.490967 248.474838,319.124176 
	C299.699768,288.911011 351.022125,258.863068 402.625305,228.572998 
M270.566132,649.900513 
	C274.735352,652.341614 278.915894,654.763611 283.072083,657.226624 
	C348.706818,696.123718 414.330261,735.039856 479.979523,773.912354 
	C489.910004,779.792419 496.794250,775.984558 496.802429,764.481567 
	C496.860779,682.331116 496.842865,600.180603 496.818604,518.030151 
	C496.816010,509.295624 492.911469,502.787476 485.338135,498.351257 
	C424.106934,462.483978 362.905640,426.565643 301.670959,390.704346 
	C293.048218,385.654572 284.442871,380.539490 275.561157,375.976898 
	C265.320740,370.716248 257.677307,375.598297 257.348175,387.150757 
	C257.329193,387.816833 257.338989,388.483734 257.338898,389.150269 
	C257.328491,468.467926 257.394440,547.785767 257.214783,627.103027 
	C257.191559,637.350525 260.861389,644.799988 270.566132,649.900513 
M660.440979,284.122803 
	C646.474854,276.001251 632.533813,267.836334 618.537537,259.767059 
	C588.091980,242.214355 557.572449,224.789337 527.182617,207.140915 
	C517.383301,201.450134 508.646759,201.927643 498.729858,207.871140 
	C462.587494,229.532318 426.026367,250.494904 389.619019,271.713776 
	C355.083374,291.841827 320.517029,311.917419 286.023132,332.116760 
	C278.002563,336.813538 278.117554,341.485321 286.025879,346.505005 
	C286.728668,346.951111 287.457092,347.357086 288.176147,347.777435 
	C316.361084,364.253113 344.485260,380.833832 372.745880,397.178680 
	C414.705841,421.446747 456.808380,445.468536 498.742004,469.781769 
	C507.958954,475.125763 516.434814,474.812378 525.538330,469.491302 
	C557.028625,451.084930 588.740173,433.057434 620.265808,414.710968 
	C660.286560,391.420654 700.227966,367.993866 740.153931,344.541382 
	C747.510681,340.220032 747.345032,334.948242 740.004883,330.652069 
	C713.699585,315.255676 687.391174,299.864532 660.440979,284.122803 
M708.683350,482.154907 
	C710.503235,480.987732 712.496277,480.019684 714.110352,478.615936 
	C718.878479,474.469025 720.198669,467.810181 717.362488,463.261963 
	C714.424561,458.550568 708.353333,457.037170 702.249634,459.667358 
	C699.348083,460.917694 696.523071,462.374176 693.757690,463.907318 
	C675.840332,473.840637 657.933716,483.793518 640.055359,493.796814 
	C630.758301,498.998718 620.910706,503.477905 612.379333,509.738312 
	C586.304993,528.871948 582.826782,557.825806 587.898315,585.102051 
	C590.553467,599.382507 602.685120,605.451782 616.916687,601.908020 
	C621.810303,600.689453 626.408630,598.778076 630.791626,596.352417 
	C639.974304,591.270386 649.092468,586.071899 658.270203,580.980774 
	C666.863831,576.213623 675.365662,571.252747 684.158081,566.880249 
	C691.943848,563.008423 697.523376,566.299622 697.983337,574.870239 
	C698.321045,581.162903 698.809814,587.543213 697.289917,593.785156 
	C695.350281,601.750549 691.115295,608.179077 683.882080,612.239563 
	C655.851318,627.975098 627.775635,643.630615 599.694031,659.275269 
	C597.621094,660.430054 595.752075,661.750366 594.262573,663.592468 
	C590.520447,668.220581 589.944763,675.047241 592.967224,678.909119 
	C596.153076,682.979797 601.542725,683.800842 607.555481,681.095825 
	C608.769287,680.549805 609.951965,679.925293 611.113403,679.273376 
	C637.841309,664.271912 664.616821,649.354004 691.263672,634.209839 
	C702.615601,627.758179 710.875305,618.251282 716.108093,606.309570 
	C723.334167,589.818787 723.228577,572.517517 720.178223,555.290161 
	C718.243713,544.364624 709.154968,538.073486 697.989624,538.276184 
	C691.001831,538.403076 684.548828,540.657043 678.504333,543.960388 
	C668.273193,549.551758 658.168884,555.374634 647.982361,561.048401 
	C640.269409,565.344482 632.597961,569.727905 624.749939,573.765137 
	C616.598083,577.958557 611.494690,575.146118 610.479492,566.163818 
	C609.879272,560.853333 609.832764,555.526123 610.597290,550.214661 
	C612.024109,540.302246 617.140259,532.848694 625.844543,528.012268 
	C653.221130,512.800720 680.651184,497.685577 708.683350,482.154907 
z"/>
<path fill="#000000" opacity="1.000000" stroke="none" 
	d="
M374.726929,606.428833 
	C368.746155,604.961365 365.229340,601.231079 362.610229,596.292847 
	C351.765228,575.844910 340.851105,555.433533 329.928070,535.027100 
	C329.186707,533.642029 328.871918,531.851196 326.960083,531.205383 
	C325.750916,532.884583 326.304199,534.760864 326.301483,536.502747 
	C326.262146,561.656433 326.279572,586.810120 326.262909,611.963867 
	C326.261597,613.958435 326.313019,615.986755 325.988892,617.941101 
	C325.025146,623.752075 320.934631,628.195374 315.940460,629.119141 
	C310.675354,630.093018 305.064545,627.353516 301.997620,622.323181 
	C299.569916,618.341431 298.875946,613.895508 298.869629,609.377441 
	C298.814178,569.564636 298.772217,529.751526 298.882080,489.938965 
	C298.900360,483.308777 300.052582,476.861420 306.895050,473.362732 
	C312.971893,470.255554 318.210510,472.311981 323.059113,476.147644 
	C327.327942,479.524689 330.109650,484.083923 332.659546,488.796387 
	C345.575317,512.666321 358.493896,536.534668 371.417755,560.400269 
	C372.289886,562.010864 373.340607,563.536499 374.087982,565.200623 
	C375.935333,569.313965 378.057953,569.240601 381.226410,566.330566 
	C392.507904,555.969482 403.859161,545.679871 415.359863,535.563110 
	C426.977203,525.343689 439.988678,527.845459 447.354218,541.640259 
	C450.526611,547.581665 452.278503,554.007629 452.280243,560.804504 
	C452.290375,600.617371 452.298676,640.430176 452.251862,680.243042 
	C452.242828,687.906311 448.619659,693.072266 442.736572,694.280762 
	C436.250641,695.613037 430.344055,692.280640 427.160126,685.388306 
	C425.310730,681.384827 424.826935,677.113098 424.830597,672.734253 
	C424.856812,641.250488 424.857361,609.766663 424.815796,578.282959 
	C424.813019,576.197754 425.400421,573.929321 423.578461,571.870178 
	C420.392181,572.146179 418.569214,574.733826 416.453888,576.617371 
	C407.127045,584.921814 397.925415,593.366943 388.684052,601.767273 
	C384.828125,605.272278 380.538971,607.513367 374.726929,606.428833 
z"/>
<path fill="#000000" opacity="1.000000" stroke="none" 
	d="
M487.350769,286.202515 
	C510.150421,276.854858 532.148926,277.309296 553.465454,289.446381 
	C569.087952,298.341431 584.732544,307.211304 600.120667,316.500916 
	C618.693054,327.712799 619.241211,346.842468 601.640747,359.450806 
	C600.018982,360.612518 598.340271,361.706512 596.621704,362.719635 
	C578.697144,373.286407 560.730713,383.782745 542.838501,394.404022 
	C535.758301,398.607025 528.320190,401.799683 520.259155,403.517059 
	C501.973297,407.412659 484.523956,405.520844 468.200012,395.958282 
	C452.399475,386.702393 436.555664,377.517944 420.847321,368.107727 
	C408.750854,360.861298 403.990479,350.155792 407.889404,339.297577 
	C410.500458,332.025848 416.131500,327.310883 422.517792,323.474121 
	C428.938385,319.616791 435.476440,315.954559 441.972595,312.223541 
	C456.982941,303.602478 471.999023,294.991486 487.350769,286.202515 
M567.616821,354.064453 
	C571.063354,352.044128 574.518494,350.038269 577.954773,348.000732 
	C587.812073,342.155914 587.799255,335.565582 577.896729,329.857239 
	C563.330811,321.460571 548.802795,312.995941 534.153748,304.746429 
	C523.206909,298.581757 511.566467,298.039276 500.669373,303.945831 
	C480.773499,314.730011 461.269653,326.250580 441.780396,337.765503 
	C433.613190,342.590942 433.981720,348.975861 442.222748,353.779358 
	C456.605133,362.162415 471.080688,370.388031 485.386505,378.899261 
	C498.928833,386.956238 512.228394,386.285065 525.545715,378.534363 
	C539.355957,370.496674 553.167603,362.461273 567.616821,354.064453 
z"/>
</svg>